<svg width="354" height="232" viewBox="0 0 354 232" fill="none" xmlns="http://www.w3.org/2000/svg">
<path d="M8.84462 9.29047L17.7905 17.6554L26.1554 8.70953L17.2095 0.344616L8.84462 9.29047ZM304 66.5001L302.922 65.4573L304 66.5001ZM211.5 114L212.957 114.357L211.5 114ZM227.5 84L226.417 82.9617L227.5 84ZM334 114L334.729 112.689L334.729 112.689L334 114ZM57.5 145L56.34 144.049L57.5 145ZM17.5 9C17.5503 10.4992 17.5515 10.4991 17.5541 10.499C17.5567 10.4989 17.5606 10.4988 17.5659 10.4986C17.5765 10.4983 17.5924 10.4978 17.6136 10.4971C17.656 10.4957 17.7196 10.4936 17.8041 10.4909C17.973 10.4855 18.2253 10.4775 18.558 10.4674C19.2233 10.4471 20.2103 10.4181 21.4952 10.3831C24.0651 10.3132 27.8269 10.2197 32.5914 10.1253C42.1208 9.93649 55.6607 9.74407 71.6996 9.72979C103.782 9.70122 145.843 10.3855 185.797 13.234C225.801 16.0861 263.521 21.0983 287.019 29.6612C292.88 31.7971 297.804 34.1359 301.638 36.6846C305.479 39.238 308.147 41.9494 309.614 44.8C311.058 47.6068 311.386 50.6378 310.397 54C309.395 57.4089 307.017 61.2223 302.922 65.4573L305.078 67.5428C309.368 63.1071 312.088 58.8844 313.275 54.8463C314.477 50.7616 314.086 46.9347 312.282 43.4275C310.5 39.964 307.389 36.905 303.299 34.1863C299.202 31.4628 294.042 29.0278 288.046 26.8426C264.113 18.1212 226.015 13.0937 186.01 10.2416C145.955 7.38584 103.814 6.70119 71.6969 6.72979C55.636 6.74409 42.0769 6.93678 32.532 7.12591C27.7595 7.22048 23.9904 7.31416 21.4137 7.38423C20.1253 7.41926 19.1351 7.44839 18.4665 7.46877C18.1323 7.47896 17.8784 7.48697 17.708 7.49243C17.6227 7.49516 17.5583 7.49726 17.5152 7.49868C17.4936 7.49938 17.4773 7.49992 17.4664 7.50028C17.4609 7.50047 17.4567 7.50061 17.454 7.5007C17.4512 7.50079 17.4497 7.50084 17.5 9ZM302.922 65.4573C288.878 79.9805 263.427 101.636 242.736 114.719C237.57 117.986 232.728 120.7 228.457 122.633C224.157 124.578 220.551 125.677 217.823 125.824C215.133 125.969 213.631 125.198 212.861 123.769C211.986 122.144 211.768 119.206 212.957 114.357L210.043 113.643C208.814 118.654 208.792 122.539 210.22 125.191C211.753 128.038 214.661 128.999 217.985 128.82C221.27 128.643 225.28 127.363 229.693 125.366C234.135 123.357 239.104 120.566 244.34 117.255C265.26 104.026 290.894 82.2115 305.078 67.5428L302.922 65.4573ZM212.957 114.357C216.066 101.675 219.602 94.4019 228.583 85.0383L226.417 82.9617C217.016 92.7636 213.258 100.533 210.043 113.643L212.957 114.357ZM228.583 85.0383C235.808 77.5053 243.48 74.3534 251.5 74.078C259.586 73.8003 268.166 76.4429 277.152 80.7826C286.132 85.1196 295.382 91.0831 304.806 97.3199C314.198 103.536 323.766 110.026 333.271 115.311L334.729 112.689C325.352 107.475 315.905 101.068 306.461 94.8181C297.049 88.5888 287.643 82.5176 278.457 78.0812C269.277 73.6475 260.182 70.778 251.397 71.0797C242.544 71.3837 234.147 74.9025 226.417 82.9617L228.583 85.0383ZM333.271 115.311C339.19 118.602 343.513 121.249 346.426 123.344C347.883 124.393 348.953 125.278 349.683 126.012C350.446 126.779 350.708 127.254 350.77 127.467C350.793 127.543 350.766 127.509 350.793 127.417C350.821 127.321 350.868 127.29 350.836 127.317C350.717 127.418 350.32 127.628 349.393 127.789C347.596 128.103 344.672 128.102 340.658 127.807C332.682 127.22 320.955 125.521 306.632 123.373C292.336 121.228 275.502 118.643 257.387 116.302C221.17 111.622 179.735 107.904 143.008 110.636C106.369 113.361 73.9791 122.533 56.34 144.049L58.66 145.951C75.4646 125.453 106.73 116.343 143.231 113.628C179.644 110.919 220.834 114.604 257.002 119.277C275.08 121.613 291.878 124.193 306.187 126.34C320.471 128.482 332.324 130.202 340.437 130.799C344.467 131.095 347.715 131.127 349.908 130.745C350.976 130.559 352.029 130.238 352.775 129.606C353.176 129.266 353.511 128.817 353.675 128.25C353.838 127.687 353.797 127.129 353.649 126.624C353.372 125.675 352.672 124.763 351.811 123.897C350.918 122.999 349.703 122.006 348.177 120.909C345.123 118.712 340.681 115.998 334.729 112.689L333.271 115.311ZM56.34 144.049C47.4451 154.899 38.7593 170.525 32.3215 183.363C29.0954 189.797 26.4208 195.558 24.5523 199.71C23.618 201.787 22.8849 203.463 22.3849 204.62C22.1349 205.199 21.9431 205.648 21.8136 205.953C21.7489 206.106 21.6997 206.223 21.6665 206.301C21.6499 206.341 21.6374 206.371 21.6289 206.391C21.6246 206.401 21.6214 206.409 21.6192 206.414C21.6181 206.417 21.6173 206.419 21.6167 206.42C21.6164 206.421 21.6162 206.421 21.616 206.422C21.6158 206.422 21.6157 206.422 23 207C24.3843 207.578 24.3843 207.578 24.3844 207.578C24.3845 207.577 24.3846 207.577 24.3848 207.576C24.3853 207.575 24.386 207.574 24.387 207.571C24.3889 207.567 24.3918 207.56 24.3958 207.55C24.4037 207.531 24.4157 207.503 24.4317 207.465C24.4637 207.389 24.5117 207.275 24.5753 207.125C24.7024 206.826 24.8916 206.382 25.1389 205.81C25.6336 204.665 26.3606 203.003 27.2882 200.941C29.1436 196.817 31.8002 191.096 35.0032 184.708C41.4237 171.904 49.9878 156.529 58.66 145.951L56.34 144.049Z" fill="#2D382E"/>
<path d="M9.74874 200.816C15.1907 201.036 21.7221 207.724 21.7221 207.724C21.7221 207.724 36.9346 206.326 41.9302 212.601C50.0176 222.759 16.9821 223.509 12.7303 229.666C8.47855 235.824 -1.75958 200.351 9.74874 200.816Z" fill="#2D382E" stroke="#2D382E" stroke-width="3"/>
<path d="M15.5148 205.007C18.0248 205.091 21.4364 209.22 21.4364 209.22C21.4364 209.22 29.3703 206.606 31.6573 209.44C35.3596 214.027 17.9281 218.643 15.9492 221.449C13.9704 224.256 10.207 204.828 15.5148 205.007Z" fill="#BCCCAC"/>
</svg>
