<svg width="189" height="38" viewBox="0 0 189 38" fill="none" xmlns="http://www.w3.org/2000/svg">
<rect y="9" width="188.619" height="15" rx="7.5" fill="#3C4B3D"/>
<rect y="9" width="117" height="15" rx="7.5" fill="#BCCCAC"/>
<circle cx="116.5" cy="16.5" r="16.5" fill="#BCCCAC"/>
<path d="M111.7 21.648C112.268 21.648 112.684 21.488 112.948 21.168C113.212 20.848 113.344 20.468 113.344 20.028V19.188C113.344 18.668 113.176 18.3 112.84 18.084C112.504 17.86 112.124 17.748 111.7 17.748H110.764V21.648H111.7ZM113.176 13.536C113.176 13.056 113.044 12.724 112.78 12.54C112.516 12.348 112.136 12.252 111.64 12.252H110.764V15.72H111.736C112.2 15.72 112.556 15.54 112.804 15.18C113.052 14.812 113.176 14.364 113.176 13.836V13.536ZM112.516 24.108C111.892 24.108 111.084 24.092 110.092 24.06C109.1 24.028 108.388 24.008 107.956 24H106.804V9.936H108.88C109.384 9.936 109.96 9.92 110.608 9.888C111.256 9.848 111.724 9.828 112.012 9.828C112.948 9.828 113.736 9.904 114.376 10.056C115.024 10.208 115.532 10.436 115.9 10.74C116.268 11.044 116.528 11.396 116.68 11.796C116.84 12.196 116.92 12.672 116.92 13.224C116.92 14.072 116.724 14.8 116.332 15.408C115.94 16.016 115.372 16.396 114.628 16.548C116.516 16.716 117.46 17.824 117.46 19.872C117.46 20.488 117.368 21.048 117.184 21.552C117 22.048 116.716 22.492 116.332 22.884C115.956 23.268 115.444 23.568 114.796 23.784C114.148 24 113.388 24.108 112.516 24.108ZM129.009 24H118.773L118.701 23.856C118.661 23.744 118.641 23.204 118.641 22.236C118.641 21.092 119.421 19.912 120.981 18.696C122.277 17.632 123.201 16.748 123.753 16.044C124.305 15.34 124.581 14.648 124.581 13.968C124.581 13.576 124.493 13.204 124.317 12.852C124.005 12.22 123.541 11.904 122.925 11.904C122.405 11.904 121.965 11.96 121.605 12.072L121.029 14.544L118.845 14.532L118.665 11.712C119.537 10.392 121.205 9.732 123.669 9.732C124.229 9.732 124.749 9.772 125.229 9.852C125.709 9.932 126.169 10.072 126.609 10.272C127.057 10.472 127.437 10.724 127.749 11.028C128.061 11.332 128.309 11.724 128.493 12.204C128.677 12.676 128.769 13.22 128.769 13.836C128.769 14.284 128.697 14.712 128.553 15.12C128.417 15.52 128.229 15.876 127.989 16.188C127.757 16.492 127.477 16.796 127.149 17.1C126.821 17.404 126.477 17.676 126.117 17.916C125.765 18.156 125.385 18.412 124.977 18.684C124.577 18.956 124.193 19.216 123.825 19.464C123.465 19.704 123.101 19.98 122.733 20.292C122.373 20.604 122.065 20.916 121.809 21.228L129.009 20.688V24Z" fill="#3C4B3D"/>
</svg>
