<svg width="189" height="38" viewBox="0 0 189 38" fill="none" xmlns="http://www.w3.org/2000/svg">
<rect y="9" width="186" height="15" rx="7.5" fill="#3C4B3D"/>
<rect y="9" width="186" height="15" rx="7.5" fill="#BCCCAC"/>
<circle cx="172.5" cy="16.5" r="16.5" fill="#BCCCAC"/>
<path d="M170.684 23.004L170.576 23.136C170.496 23.216 170.36 23.32 170.168 23.448C169.984 23.568 169.76 23.692 169.496 23.82C169.24 23.94 168.896 24.04 168.464 24.12C168.032 24.208 167.568 24.252 167.072 24.252C166.024 24.252 165.128 24.08 164.384 23.736C163.64 23.384 163.056 22.876 162.632 22.212C162.216 21.54 161.916 20.784 161.732 19.944C161.548 19.096 161.456 18.116 161.456 17.004C161.456 15.82 161.548 14.8 161.732 13.944C161.916 13.08 162.22 12.324 162.644 11.676C163.076 11.02 163.668 10.528 164.42 10.2C165.172 9.872 166.088 9.708 167.168 9.708C167.664 9.708 168.128 9.752 168.56 9.84C169 9.928 169.344 10.028 169.592 10.14C169.848 10.252 170.076 10.38 170.276 10.524C170.484 10.668 170.612 10.768 170.66 10.824C170.716 10.88 170.756 10.924 170.78 10.956L170.6 13.716H168.776L168.152 12.288C168.008 12.248 167.888 12.228 167.792 12.228C167.256 12.228 166.844 12.352 166.556 12.6C166.268 12.84 166.048 13.316 165.896 14.028C165.744 14.732 165.668 15.748 165.668 17.076C165.668 17.868 165.716 18.56 165.812 19.152C165.916 19.744 166.04 20.2 166.184 20.52C166.328 20.832 166.5 21.084 166.7 21.276C166.9 21.468 167.08 21.592 167.24 21.648C167.4 21.696 167.572 21.72 167.756 21.72C168.164 21.72 168.592 21.672 169.04 21.576C169.488 21.472 169.856 21.316 170.144 21.108L170.684 23.004ZM182.181 24H171.945L171.873 23.856C171.833 23.744 171.813 23.204 171.813 22.236C171.813 21.092 172.593 19.912 174.153 18.696C175.449 17.632 176.373 16.748 176.925 16.044C177.477 15.34 177.753 14.648 177.753 13.968C177.753 13.576 177.665 13.204 177.489 12.852C177.177 12.22 176.713 11.904 176.097 11.904C175.577 11.904 175.137 11.96 174.777 12.072L174.201 14.544L172.017 14.532L171.837 11.712C172.709 10.392 174.377 9.732 176.841 9.732C177.401 9.732 177.921 9.772 178.401 9.852C178.881 9.932 179.341 10.072 179.781 10.272C180.229 10.472 180.609 10.724 180.921 11.028C181.233 11.332 181.481 11.724 181.665 12.204C181.849 12.676 181.941 13.22 181.941 13.836C181.941 14.284 181.869 14.712 181.725 15.12C181.589 15.52 181.401 15.876 181.161 16.188C180.929 16.492 180.649 16.796 180.321 17.1C179.993 17.404 179.649 17.676 179.289 17.916C178.937 18.156 178.557 18.412 178.149 18.684C177.749 18.956 177.365 19.216 176.997 19.464C176.637 19.704 176.273 19.98 175.905 20.292C175.545 20.604 175.237 20.916 174.981 21.228L182.181 20.688V24Z" fill="#3C4B3D"/>
</svg>
