<svg width="215" height="215" viewBox="0 0 215 215" fill="none" xmlns="http://www.w3.org/2000/svg">
<mask id="mask0_680_153" style="mask-type:alpha" maskUnits="userSpaceOnUse" x="4" y="4" width="207" height="207">
<rect x="106.948" width="152.03" height="152.03" rx="12" transform="rotate(44.706 106.948 0)" fill="#CD99C4"/>
</mask>
<g mask="url(#mask0_680_153)">
<rect x="106.948" y="-0.584572" width="152.03" height="152.03" rx="12" transform="rotate(44.706 106.948 -0.584572)" fill="#C07EB4"/>
<path d="M62.0258 101.155C59.6721 101.155 55.782 180.681 55.782 181.084C55.782 181.487 54.9974 185.652 54.4744 182.159C53.9514 178.666 44.798 53.0627 48.067 46.0772C51.3361 39.0918 75.9194 100.752 78.4038 101.155C80.8883 101.558 108.348 29.4196 113.056 32.2407C117.763 35.0617 112.091 148.629 108.299 145.539C104.506 142.449 106.387 70.9293 104.687 70.5263C102.987 70.1233 81.1498 115.529 78.4038 115.932C75.6578 116.335 64.3795 101.155 62.0258 101.155Z" fill="#ECE3EC"/>
<path d="M121.168 125.552C116.488 127.139 120.881 75.9184 121.168 48.8878C121.456 21.8571 127.745 105.21 128.007 99.5678C139.584 90.0129 146.921 81.7376 147.967 80.3617C152.461 74.4509 155.205 67.4188 155.205 63.3887C155.205 56.8537 152.524 51.5999 143.129 48.8878C133.734 46.1756 129.268 45.9275 126.784 43.8225C124.299 41.7174 138.79 42.9612 146.921 45.1658C158.139 48.2073 166.905 53.9589 167.32 64.7205C167.559 70.9158 153.087 86.063 147.072 92.0815C145.961 93.1924 144.641 94.0408 143.196 94.605C149.111 93.6595 155.635 93.3266 161.305 93.7952C173.094 94.7697 184.444 106.616 184.444 120.994C184.444 137.226 164.159 148.343 154.167 152.571C144.175 156.799 105.281 165.647 74.3139 173.806C43.347 181.966 140.61 150.424 150.631 146.056C160.651 141.687 171.261 134.216 171.261 120.994C171.261 110.989 165.48 107.649 156.347 108.408C147.214 109.167 125.849 123.964 121.168 125.552Z" fill="#ECE3EC"/>
</g>
</svg>
