<svg width="538" height="564" viewBox="0 0 538 564" fill="none" xmlns="http://www.w3.org/2000/svg">
<path d="M48.1905 206.8C39.1906 206.8 32.1906 552.8 32.1906 554.3C32.1906 555.8 29.1904 571.3 27.1906 558.3C25.1907 545.3 -9.80946 77.8001 2.69049 51.8001C15.1904 25.8001 109.191 255.3 118.691 256.8C128.191 258.3 233.19 -10.1999 251.191 0.300137C269.191 10.8002 247.5 433.5 233 422C218.5 410.5 225.69 144.3 219.19 142.8C212.69 141.3 129.191 310.3 118.691 311.8C108.191 313.3 57.1905 206.8 48.1905 206.8Z" fill="#C07EB4"/>
<path d="M279.398 319.885C273.612 309.129 281.113 162.869 282.211 62.26C283.31 -38.3488 306.684 273.407 307.684 252.407C351.953 216.843 380.684 184.528 384.684 179.407C401.868 157.407 419.184 132.907 419.184 117.907C419.184 98.3823 402.107 72.3547 366.184 62.26C330.261 52.1653 313.184 51.2418 303.684 43.4067C294.184 35.5717 349.592 40.2011 380.684 48.4067C423.579 59.7272 459 76.8273 458.684 121.19C458.424 157.786 384.684 230.676 384.684 230.676C402.261 228.715 420.121 228.154 435.684 229.407C479.184 232.907 520.002 277.287 524.162 330.641C529.17 394.872 446.597 432.437 408.391 448.172C370.184 463.907 223.594 495.567 105.184 525.935C-13.2252 556.304 358.684 438.907 397 422.647C435.316 406.387 491.194 378.407 491.194 329.192C491.194 291.953 465.261 263.407 425.184 263.407C385.107 263.407 285.184 330.641 279.398 319.885Z" fill="#C07EB4"/>
</svg>
