<svg width="477" height="548" viewBox="0 0 477 548" fill="none" xmlns="http://www.w3.org/2000/svg">
<path d="M40.793 204.668L30.5947 548.009L0 548.009V109.485H27.1953L105.382 248.86L200.565 27.8986C200.565 27.8986 261.753 -5.19085 302.548 0.703335C338.411 5.88493 367.617 12.6439 384.134 44.8957C397.32 70.6446 391.823 91.087 384.349 118.882L384.134 119.683C379.199 138.039 363.737 163.875 363.737 163.875C363.737 163.875 424.299 170.323 448.723 197.869C485.881 239.778 482.016 295.011 462.32 347.443C438.324 411.322 384.132 450.388 316.145 456.225C273.799 459.86 217.562 425.63 217.562 425.63L200.565 109.485L112.181 330.446H95.1836L40.793 204.668Z" fill="#F4F4F4"/>
<path d="M265.154 405.233C258.355 398.435 248.157 65.2923 248.157 65.2923C248.157 65.2923 294.8 33.7443 322.944 44.8958C335.286 49.786 342.725 54.28 350.14 65.2923C362.744 84.0131 356.198 101.342 350.14 123.082C339.051 162.87 275.353 197.869 275.353 197.869L309.347 214.866C309.347 214.866 332.924 199.08 350.14 197.869C378.573 195.869 403.282 206.565 421.527 228.464C452.119 265.182 442.991 325.901 414.728 364.441C377.335 415.432 271.953 412.032 265.154 405.233Z" fill="#28496A"/>
</svg>
