<svg width="80" height="80" viewBox="0 0 80 80" fill="none" xmlns="http://www.w3.org/2000/svg">
<mask id="mask0_732_74" style="mask-type:alpha" maskUnits="userSpaceOnUse" x="1" y="1" width="78" height="78">
<rect x="39.6909" width="56.4219" height="56.4219" rx="4" transform="rotate(44.706 39.6909 0)" fill="#CD99C4"/>
</mask>
<g mask="url(#mask0_732_74)">
<rect x="39.6909" y="-0.216949" width="56.4219" height="56.4219" rx="4" transform="rotate(44.706 39.6909 -0.216949)" fill="#2D382E"/>
<path d="M23.0192 37.541C22.1457 37.541 20.702 67.0552 20.702 67.2047C20.702 67.3543 20.4108 68.8998 20.2167 67.6036C20.0226 66.3073 16.6256 19.6928 17.8388 17.1004C19.052 14.5079 28.1754 37.3914 29.0975 37.541C30.0195 37.6905 40.2106 10.9183 41.9576 11.9653C43.7047 13.0122 41.5994 55.1597 40.1921 54.0131C38.7848 52.8664 39.4827 26.3236 38.8518 26.174C38.2209 26.0244 30.1166 42.8754 29.0975 43.025C28.0784 43.1746 23.8927 37.541 23.0192 37.541Z" fill="#CD99C4"/>
<path d="M44.9684 46.5952C43.2314 47.1843 44.8618 28.1751 44.9684 18.1434C45.075 8.11171 47.4092 39.0459 47.5063 36.952C51.8029 33.4059 54.5259 30.3348 54.9142 29.8241C56.582 27.6305 57.6003 25.0207 57.6003 23.5251C57.6003 21.0998 56.6052 19.15 53.1186 18.1434C49.632 17.1369 47.9745 17.0448 47.0525 16.2636C46.1304 15.4823 51.5082 15.9439 54.5259 16.7621C58.6892 17.8909 61.9424 20.0255 62.0964 24.0193C62.2016 26.7452 54.6332 34.1405 53.7182 35.0242C55.7555 34.7401 57.942 34.6508 59.8641 34.8097C64.2391 35.1713 68.4516 39.5677 68.4516 44.9037C68.4516 50.9277 60.9233 55.0538 57.2151 56.6227C53.5068 58.1917 39.0722 61.4756 27.5796 64.5037C16.087 67.5318 52.1837 55.8261 55.9026 54.2048C59.6215 52.5835 63.5589 49.8109 63.5589 44.9037C63.5589 41.1906 61.4135 39.9511 58.0241 40.2328C54.6347 40.5145 46.7054 46.0061 44.9684 46.5952Z" fill="#CD99C4"/>
</g>
</svg>
