<svg width="61" height="67" viewBox="0 0 61 67" fill="none" xmlns="http://www.w3.org/2000/svg">
<path d="M29.0046 1.48574C29.7441 0.665185 30.9497 0.659028 31.6975 1.47198L55.0638 26.8746C56.5037 28.44 55.0205 31.0629 53.1056 30.3374L30.977 21.9544C30.567 21.799 30.1211 21.802 29.7131 21.9628L7.90705 30.556C5.99884 31.3079 4.48259 28.6976 5.9085 27.1153L29.0046 1.48574Z" fill="#ECE3EC"/>
<path d="M26.5 50C26.5 51.933 28.067 53.5 30 53.5C31.933 53.5 33.5 51.933 33.5 50L26.5 50ZM26.5 15L26.5 50L33.5 50L33.5 15L26.5 15Z" fill="#ECE3EC"/>
</svg>
